<svg width="25" height="25" viewBox="0 0 20 20" fill="none" xmlns="http://www.w3.org/2000/svg">
<g clip-path="url(#clip0_33_101)">
<path d="M10 2.50001C10.11 2.50001 10.2192 2.50001 10.3275 2.50001C9.25697 3.49477 8.56885 4.83322 8.38276 6.2827C8.19668 7.73218 8.5244 9.20104 9.30897 10.434C10.0935 11.6669 11.2853 12.5859 12.6772 13.0312C14.0691 13.4766 15.573 13.4201 16.9275 12.8717C16.4065 14.1254 15.5548 15.2142 14.4635 16.0219C13.3722 16.8296 12.0821 17.3259 10.7308 17.4578C9.3795 17.5898 8.01774 17.3525 6.79076 16.7712C5.56379 16.1899 4.51762 15.2864 3.76385 14.1572C3.01008 13.0279 2.57698 11.7152 2.51076 10.3592C2.44454 9.00306 2.74767 7.65443 3.38783 6.45711C4.02799 5.25979 4.98116 4.2587 6.14566 3.56063C7.31016 2.86255 8.64231 2.49367 10 2.49335V2.50001Z" stroke="black" stroke-width="1.83333" stroke-linecap="round" stroke-linejoin="round"/>
</g>
<defs>
<clipPath id="clip0_33_101">
<rect width="25" height="25" fill="white"/>
</clipPath>
</defs>
</svg>
